<svg id="Layer_1" xmlns="http://www.w3.org/2000/svg" viewBox="0 0 43.7 32"><title>Kubernetes</title><g id="Layer0_0_FILL"><path d="M20.57,30.11v-5.9l-6.5-2.39V32.5l6.5-2.39M7.9,23.63v7.05l4.93,1.82V21.82L7.9,23.63m.28,6.65V24L9,23.83v6.65l-.78-.2m2.18-6.82v7.39l-1-.26V23.72l1-.26m.42,7.5V23.35l1.63-.43v8.47L10.78,31M.15,13v7l4.93,1.83V11.16L.15,13m.27,6.64V13.38l.78-.21v6.66l-.78-.21M3,12.69l1.63-.43v8.47L3,20.3V12.69m-1.41.38,1-.27v7.4l-1-.27V13.07m11.19,6.38v-5.9L6.32,11.16V21.85l6.49-2.4M15.67,13v7l4.93,1.83V11.16L15.67,13m.27,6.64V13.38l.78-.21v6.66l-.78-.21m2.61-6.93,1.63-.43v8.47l-1.63-.43V12.69m-1.41.38,1-.27v7.4l-1-.27V13.07M20.57,8.8V2.9L14.07.5V11.19l6.5-2.39M12.83.5,7.9,2.32v7l4.93,1.83V.5M10.78,2l1.63-.43v8.47l-1.63-.43V2M9,2.52V9.17L8.18,9V2.72L9,2.52m1.4,7-1-.26V2.41l1-.26V9.54m18,1.65V.5L23.42,2.32v7l4.94,1.83M26.3,2l1.64-.43v8.47L26.3,9.65V2m-.42,7.5-1-.26V2.41l1-.26V9.54m-1.4-7V9.17L23.7,9V2.72l.78-.2m3.88,30V21.82l-4.94,1.81v7.05l4.94,1.82m-2.48-9v7.39l-1-.26V23.72l1-.26M26.3,31V23.35l1.64-.43v8.47L26.3,31m-1.82-7.13v6.65l-.78-.2V24l.78-.21m11.61,6.28v-5.9L29.6,21.82V32.5l6.49-2.39M28.34,19.45v-5.9l-6.5-2.39V21.85l6.5-2.4M31.18,13v7l4.93,1.83V11.16L31.18,13m1,.19v6.66l-.78-.21V13.38l.78-.21m1.41-.37v7.4l-1-.27V13.07l1-.27m.42,7.5V12.69l1.63-.43v8.47l-1.63-.43m2-11.5V2.9L29.6.5V11.19L36.09,8.8m7.76,10.65v-5.9l-6.5-2.39V21.85Z" transform="translate(-0.15 -0.5)" fill="#804998"/></g></svg>